<?xml version="1.0" encoding="UTF-8"?>
<svg version="1.1" xmlns="http://www.w3.org/2000/svg" width="300" height="300">
<path d="M0 0 C9.15512683 0.22244529 16.78443133 3.2683283 25 7 C25.96164063 7.43183594 26.92328125 7.86367187 27.9140625 8.30859375 C36.34323643 12.49831589 43.10261191 18.69982754 50 25 C50.70253906 25.63035156 51.40507812 26.26070312 52.12890625 26.91015625 C64.51888138 38.61020237 73.0193851 54.22979068 79 70 C79.41636719 71.04542969 79.83273438 72.09085937 80.26171875 73.16796875 C83.28438024 82.21474155 83.36742811 91.18088668 83.375 100.625 C83.37799103 101.6313147 83.37799103 101.6313147 83.38104248 102.65795898 C83.37691859 114.92015154 83.37691859 114.92015154 81 120 C81.61488281 119.65066406 82.22976562 119.30132812 82.86328125 118.94140625 C83.67152344 118.48636719 84.47976562 118.03132813 85.3125 117.5625 C86.11300781 117.11003906 86.91351563 116.65757813 87.73828125 116.19140625 C90 115 90 115 93 114 C93 113.34 93 112.68 93 112 C93.66 112 94.32 112 95 112 C95.37125 111.2265625 95.37125 111.2265625 95.75 110.4375 C97 108 97 108 99 105 C102.45900005 99.05000364 103 91.76232322 103 85 C107.76936272 86.39213831 110.27662819 89.13095677 113.3125 92.875 C114.02925903 93.74294189 114.02925903 93.74294189 114.76049805 94.62841797 C135.36126123 119.96463199 149.99386979 154.04923558 151 187 C151.03867187 188.09103027 151.03867187 188.09103027 151.078125 189.20410156 C152.00752123 218.8402238 145.51147935 244.80761052 125.0625 267 C119.54701821 272.77974983 113.78147395 277.73455117 107 282 C106.06929687 282.60070312 105.13859375 283.20140625 104.1796875 283.8203125 C76.45832631 300.89667099 38.66582679 305.10185273 6.94921875 298.03515625 C5.62989541 297.70143141 4.31349892 297.35595917 3 297 C1.89712646 296.70198486 1.89712646 296.70198486 0.77197266 296.39794922 C-26.85142821 288.61958175 -49.14903997 271.95494311 -63.71484375 247.0703125 C-77.78708474 220.64457751 -78.51517825 188.48224795 -70.1003418 160.15722656 C-62.69941606 136.87084023 -46.55515996 116.53616006 -27 102 C-25.96939453 101.54560547 -25.96939453 101.54560547 -24.91796875 101.08203125 C-22.49798048 99.71678328 -22.13519672 98.4983446 -21 96 C-19.83810453 94.56225885 -18.64714169 93.14780817 -17.4375 91.75 C0.55182674 69.56644044 4.43621 44.82819542 1.640625 16.98828125 C1.53427734 15.99908691 1.42792969 15.00989258 1.31835938 13.99072266 C0.82247809 9.33232869 0.4133477 4.6663261 0 0 Z M35 143 C32.67422779 145.49116046 30.81923547 148.1234311 29 151 C28.47535156 151.80824219 27.95070312 152.61648437 27.41015625 153.44921875 C24.27664755 158.45210672 21.69284172 163.33850947 20 169 C19.79503906 169.66128906 19.59007812 170.32257813 19.37890625 171.00390625 C17.3060721 178.76631275 16.6098992 188.25607341 19 196 C12.46650032 193.33820383 9.06753706 188.02929699 6 182 C5.27954236 180.0187415 4.59218657 178.02330411 4 176 C-1.17724388 180.54969917 -4.49691711 186.11112445 -8 192 C-8.38285156 192.62519531 -8.76570313 193.25039062 -9.16015625 193.89453125 C-17.74329322 209.28857854 -19.29486552 227.70327918 -16.3359375 244.84765625 C-13.00296759 256.07831571 -4.87665598 266.74124293 5.25 272.6875 C22.49317026 281.57211654 39.33218658 282.88778711 58 278 C71.37763297 273.68820094 82.26739111 265.53158707 88.8125 252.9375 C94.73927912 240.78052304 95.10324392 224.83883258 91.4375 211.875 C87.85247877 202.23078795 82.81656996 193.7408952 75 187 C74.43796875 186.4946875 73.8759375 185.989375 73.296875 185.46875 C70.54760848 182.81825654 70.54760848 182.81825654 67 182 C66.59394531 181.13375 66.59394531 181.13375 66.1796875 180.25 C64.99388137 177.98833002 63.63064854 176.05953997 62.125 174 C53.72814512 161.32239557 53.65650723 147.57538185 56 133 C47.94804399 133 40.95648539 138.00617892 35 143 Z " fill="#000000" transform="translate(112,0)"/>
</svg>
