<?xml version="1.0" standalone="no"?>
<!DOCTYPE svg PUBLIC "-//W3C//DTD SVG 20010904//EN"
 "http://www.w3.org/TR/2001/REC-SVG-20010904/DTD/svg10.dtd">
<svg version="1.0" xmlns="http://www.w3.org/2000/svg"
 width="832.000000pt" height="1248.000000pt" viewBox="0 0 832.000000 1248.000000"
 preserveAspectRatio="xMidYMid meet">

<g transform="translate(0.000000,1248.000000) scale(0.100000,-0.100000)"
fill="#000000" stroke="none">
<path d="M0 6240 l0 -6240 4160 0 4160 0 0 6240 0 6240 -4160 0 -4160 0 0
-6240z m6813 1824 c1 -4 -8 -9 -20 -10 -27 -4 -31 13 -5 18 19 5 23 3 25 -8z
m-865 -55 c-2 -6 -8 -10 -13 -10 -5 0 -11 4 -13 10 -2 6 4 11 13 11 9 0 15 -5
13 -11z m1742 -99 c0 -5 -4 -10 -10 -10 -5 0 -10 5 -10 10 0 6 5 10 10 10 6 0
10 -4 10 -10z m-1123 -194 c51 -3 100 -10 110 -15 15 -9 12 -10 -12 -5 -16 4
-99 7 -185 7 -138 0 -171 -4 -295 -32 -81 -18 -151 -39 -167 -51 -30 -22 -43
-26 -33 -9 4 6 -24 -5 -61 -25 -38 -19 -87 -43 -109 -52 -22 -10 -46 -26 -53
-36 -7 -9 -19 -15 -27 -12 -8 4 -15 1 -15 -5 0 -6 -6 -8 -14 -5 -8 3 -17 0
-21 -5 -3 -6 -10 -9 -13 -7 -4 2 -61 -23 -127 -57 -98 -50 -121 -67 -123 -86
-3 -17 -6 -20 -12 -11 -6 10 -19 7 -57 -15 -42 -25 -173 -112 -273 -183 l-35
-25 32 29 c164 146 547 376 780 468 201 79 487 148 583 140 19 -2 76 -5 127
-8z m-3373 -72 c-15 -19 -35 -41 -44 -47 -8 -7 -103 -106 -210 -222 -201 -217
-457 -490 -590 -630 -225 -236 -331 -357 -322 -368 5 -7 54 -70 109 -142 273
-355 1089 -1449 1076 -1443 -4 2 -63 30 -131 63 -67 32 -121 60 -119 62 2 2
43 -15 92 -37 86 -40 121 -47 71 -15 -14 9 -37 37 -51 61 -15 25 -45 66 -68
93 -23 26 -49 58 -57 71 -8 12 -21 29 -28 36 -7 8 -11 14 -7 14 6 0 0 8 -45
59 -16 18 -30 36 -30 40 0 3 -14 22 -32 41 -17 19 -62 78 -101 130 -39 52
-112 147 -162 211 -51 63 -130 165 -176 225 -45 60 -130 171 -188 248 -172
224 -190 250 -191 264 0 6 -6 12 -12 12 -7 0 -1 10 13 23 28 23 354 373 528
566 107 118 266 293 289 317 6 7 12 15 12 17 0 2 21 26 48 53 132 137 203 216
198 221 -15 16 -120 -76 -277 -242 -342 -363 -442 -468 -510 -540 -42 -44 -91
-97 -109 -117 -18 -21 -37 -35 -43 -31 -6 3 -7 2 -4 -4 4 -6 -5 -21 -19 -34
-14 -13 -24 -18 -22 -10 2 9 -7 14 -24 15 -16 1 -28 -1 -28 -4 0 -3 -34 -7
-76 -7 -41 -1 -81 -7 -89 -13 -10 -8 -15 -8 -21 1 -4 7 -3 9 3 6 5 -3 10 1 10
11 0 9 -95 -81 -215 -203 -117 -121 -210 -213 -206 -205 4 9 3 12 -2 7 -5 -5
-8 -12 -7 -15 2 -12 -19 -32 -27 -27 -5 3 -12 0 -16 -6 -5 -8 -3 -9 7 -4 8 4
-7 -14 -32 -41 -26 -27 -59 -64 -74 -81 -16 -18 -34 -33 -41 -33 -14 0 -18
-75 -22 -440 -2 -117 -5 -216 -7 -219 -3 -2 -5 148 -5 335 l0 339 111 115 c60
63 151 160 201 215 298 326 992 1064 1001 1065 1 0 157 63 347 139 190 77 346
140 348 140 2 1 -9 -15 -24 -35z m3736 -34 c0 -5 -2 -10 -4 -10 -3 0 -8 5 -11
10 -3 6 -1 10 4 10 6 0 11 -4 11 -10z m-5113 -35 c7 -20 -2 -29 -21 -22 -9 4
-13 13 -10 22 8 19 23 19 31 0z m3928 -15 c3 -5 -6 -12 -20 -16 -29 -7 -41 -1
-30 15 8 14 42 14 50 1z m532 -32 c-3 -8 -6 -5 -6 6 -1 11 2 17 5 13 3 -3 4
-12 1 -19z m548 -8 c18 -20 18 -21 -5 -12 -13 5 -26 14 -28 20 -6 19 13 14 33
-8z m-1455 -31 c0 -20 -24 -26 -35 -9 -4 6 -4 17 -1 25 7 20 36 7 36 -16z
m1690 -49 c0 -5 -4 -10 -10 -10 -5 0 -10 5 -10 10 0 6 5 10 10 10 6 0 10 -4
10 -10z m-1110 -35 c0 -8 -4 -15 -9 -15 -13 0 -22 16 -14 24 11 11 23 6 23 -9z
m-85 -217 c-501 -511 -591 -603 -684 -700 -57 -58 -102 -110 -101 -115 1 -7
191 -240 497 -608 56 -68 107 -126 112 -130 13 -7 44 52 35 67 -5 7 -3 8 6 3
10 -6 12 -4 7 8 -3 9 0 23 8 31 8 7 11 16 8 20 -4 3 -1 6 6 6 7 0 10 4 7 9 -4
5 -2 11 3 13 15 5 162 311 156 326 -2 7 -1 11 4 7 15 -9 119 217 116 252 -1
12 3 19 8 16 6 -4 8 3 5 15 -4 12 -2 20 3 16 5 -3 9 0 9 6 0 6 5 8 12 4 7 -4
8 -3 4 4 -4 7 -2 12 4 12 6 0 8 5 5 10 -3 6 -1 10 6 10 7 0 10 3 6 6 -3 4 0
13 8 20 8 8 12 21 9 29 -4 8 -1 15 5 15 6 0 10 3 10 8 -4 21 2 42 10 38 5 -3
12 1 15 10 3 8 2 12 -3 9 -5 -3 -13 0 -17 6 -4 8 -3 9 4 5 7 -4 12 -2 12 4 0
6 5 8 10 5 6 -3 10 1 10 10 0 9 -4 13 -10 10 -16 -10 -12 11 5 25 8 7 12 16 9
21 -3 5 0 9 6 9 6 0 9 4 5 10 -8 12 30 81 40 72 5 -4 5 -1 1 6 -13 23 91 232
136 275 l41 37 162 0 163 0 15 -37 c41 -98 218 -488 226 -496 8 -8 30 18 94
108 11 15 21 24 24 22 7 -8 -14 -43 -63 -106 l-44 -56 106 -240 c125 -283 228
-518 295 -670 l48 -110 -176 -3 c-111 -1 -180 1 -188 8 -14 12 -125 271 -125
291 0 12 32 -53 112 -232 l25 -56 159 1 c136 1 158 3 155 16 -2 8 -4 20 -5 25
-2 15 -88 210 -200 458 -14 32 -26 60 -26 63 0 3 -12 31 -26 62 -14 31 -46
102 -71 157 -25 55 -55 121 -68 147 -13 25 -21 49 -18 52 4 3 1 6 -5 6 -7 0
-12 6 -12 14 0 7 -20 53 -44 102 -24 49 -49 106 -56 127 -6 20 -16 37 -20 37
-5 0 -7 6 -4 13 2 7 -5 23 -16 35 -12 12 -18 27 -14 34 4 6 3 8 -3 5 -6 -4
-14 4 -17 18 -4 14 -17 49 -30 78 -12 28 -27 63 -33 77 -10 22 -12 23 -18 7
-4 -10 4 -43 21 -83 23 -54 25 -67 14 -74 -8 -5 -18 -6 -22 -4 -4 3 -8 -2 -8
-10 0 -9 -4 -16 -9 -16 -5 0 -17 -17 -27 -39 -13 -29 -23 -38 -41 -38 -18 0
-21 2 -12 13 8 10 6 13 -9 11 -12 0 -18 -6 -15 -14 3 -7 0 -13 -6 -13 -6 0
-11 5 -11 10 0 23 -19 7 -30 -25 -6 -19 -16 -38 -22 -41 -6 -4 -5 2 1 15 7 12
9 26 6 31 -3 6 -1 10 6 10 7 0 10 2 7 5 -8 8 -39 -6 -33 -15 7 -11 -5 -41 -15
-35 -4 2 -18 -4 -31 -16 -12 -11 -28 -18 -35 -15 -7 3 -10 -2 -7 -15 4 -15 2
-18 -11 -13 -10 4 -19 -2 -27 -20 -7 -14 -16 -23 -20 -20 -5 3 -9 0 -9 -5 0
-6 -6 -11 -14 -11 -8 0 -22 -10 -31 -22 -13 -20 -17 -21 -25 -8 -5 8 -10 10
-10 4 0 -5 6 -16 13 -23 7 -9 8 -12 0 -7 -29 16 -56 -13 -114 -125 -65 -124
-230 -457 -370 -748 -49 -101 -92 -182 -94 -179 -3 3 51 121 120 262 69 141
125 260 124 264 0 4 -33 -58 -73 -138 -155 -308 -167 -330 -182 -330 -21 0
-72 56 -232 255 -75 94 -141 175 -147 181 -5 7 -38 45 -71 85 -34 41 -87 104
-118 141 -31 37 -56 72 -56 78 0 5 -3 10 -8 10 -4 0 -12 10 -18 23 -12 26 -22
15 451 500 170 175 314 326 319 335 5 9 20 27 33 40 13 13 22 26 19 29 -15 15
-132 -84 -286 -243 -96 -100 -180 -180 -187 -178 -7 2 -10 -3 -6 -13 5 -13 2
-15 -11 -10 -10 4 -15 3 -11 -3 8 -13 -22 -43 -35 -35 -6 3 -7 -1 -4 -10 5
-11 2 -14 -12 -8 -12 4 -15 3 -10 -5 4 -7 1 -12 -9 -12 -11 0 -15 -5 -12 -14
3 -8 -2 -20 -11 -28 -15 -12 -16 -11 -4 4 8 9 9 19 4 22 -6 3 -13 -1 -16 -10
-3 -8 -11 -12 -16 -9 -6 4 -9 1 -8 -7 2 -8 -6 -13 -19 -12 -13 1 -20 -3 -16
-11 2 -7 -1 -16 -8 -21 -8 -5 -10 -3 -4 7 8 12 6 12 -9 0 -9 -8 -14 -21 -11
-29 4 -12 3 -13 -10 -2 -12 10 -18 10 -31 0 -8 -8 -27 -15 -40 -16 -14 -2 -36
-10 -50 -18 -13 -9 -34 -16 -47 -16 -13 0 -32 -9 -42 -20 -10 -12 -24 -19 -31
-16 -7 3 -22 -4 -35 -15 -25 -21 -44 -25 -33 -6 4 6 -2 4 -14 -7 -12 -10 -19
-23 -15 -29 3 -5 1 -7 -4 -4 -6 4 -115 -99 -242 -229 -153 -156 -236 -234
-246 -230 -8 3 -17 1 -20 -4 -7 -11 -8 -720 -1 -727 5 -5 86 79 234 239 l62
67 0 163 0 163 107 105 c59 58 88 83 65 55 -22 -27 -68 -77 -101 -110 l-61
-59 0 -163 0 -164 -167 -179 -168 -179 -3 395 c-2 337 0 398 13 417 8 11 83
91 168 176 84 86 175 181 202 211 27 30 185 197 351 371 l302 315 163 56 c90
31 241 83 334 116 94 33 177 60 185 61 8 1 -58 -72 -145 -161z m1315 62 c0 -5
-2 -10 -4 -10 -3 0 -8 5 -11 10 -3 6 -1 10 4 10 6 0 11 -4 11 -10z m560 -120
c0 -5 -4 -10 -10 -10 -5 0 -10 5 -10 10 0 6 5 10 10 10 6 0 10 -4 10 -10z
m-6221 -26 l31 -6 0 -307 -1 -306 -110 -115 c-61 -63 -134 -141 -161 -172 -28
-32 -55 -58 -59 -58 -5 0 -9 163 -9 363 l0 362 -100 110 c-55 61 -100 113
-100 117 0 4 21 9 48 11 84 6 429 7 461 1z m2521 2 c0 0 -74 -77 -164 -171
l-164 -170 -309 -5 c-351 -6 -362 -8 -418 -88 l-30 -44 -3 -301 c-3 -331 0
-357 56 -410 54 -52 93 -58 371 -57 238 0 258 1 298 21 30 15 52 35 71 67 l27
47 5 351 5 352 162 166 c89 91 165 166 168 166 3 0 5 -242 2 -537 -4 -592 -3
-582 -68 -711 -57 -111 -182 -209 -320 -249 -83 -23 -544 -30 -662 -10 -229
40 -393 189 -448 407 -20 78 -20 671 0 750 24 99 70 180 146 256 107 108 204
151 375 164 83 6 901 12 900 6z m588 -312 l2 -309 -170 -170 -170 -170 0 477
0 477 98 4 c53 2 129 3 167 2 l70 -2 3 -309z m2579 199 c-3 -10 -5 -2 -5 17 0
19 2 27 5 18 2 -10 2 -26 0 -35z m-2297 26 c0 -5 5 -7 10 -4 6 3 10 2 10 -3 0
-15 -32 -24 -43 -13 -10 10 -1 31 14 31 5 0 9 -5 9 -11z m-16 -74 c-4 -8 -8
-15 -10 -15 -2 0 -4 7 -4 15 0 8 4 15 10 15 5 0 7 -7 4 -15z m-2984 -30 c0 -8
-4 -15 -10 -15 -5 0 -10 7 -10 15 0 8 5 15 10 15 6 0 10 -7 10 -15z m2900 0
c-7 -8 -17 -15 -23 -15 -6 0 -2 7 9 15 25 19 30 19 14 0z m2379 -27 c-5 -17
-14 -36 -20 -42 -9 -8 -10 -6 -5 7 3 11 9 30 12 43 3 13 10 24 14 24 5 0 4
-14 -1 -32z m-567 -126 c-3 -9 -1 -13 4 -10 5 4 10 -5 10 -19 2 -28 2 -28 -19
13 -13 25 -13 31 -2 31 7 0 11 -7 7 -15z m912 -64 c-33 -57 -88 -108 -100 -95
-6 6 88 107 99 107 5 0 5 -6 1 -12z m-914 -101 c0 -7 129 -285 189 -409 16
-32 26 -60 23 -63 -3 -3 -19 -6 -36 -7 -17 -1 -4 -4 29 -8 39 -4 -5 -7 -130
-8 l-190 -2 -24 -43 c-45 -78 -106 -167 -114 -167 -5 0 -3 10 5 23 65 102 77
137 16 44 -20 -29 -50 -66 -67 -82 l-31 -30 297 -5 298 -5 -314 -3 -313 -2 14
23 c7 12 52 86 98 164 l85 143 167 0 167 0 -35 83 c-94 218 -164 386 -164 393
0 10 29 -28 30 -39z m-174 -187 c-47 -100 -86 -183 -86 -185 0 -1 -43 -92 -96
-201 -53 -110 -151 -316 -219 -459 -170 -360 -203 -427 -216 -440 -15 -13 -11
-4 27 70 18 33 88 179 157 325 139 295 171 362 332 700 61 129 127 268 145
308 18 40 35 70 37 68 2 -2 -34 -86 -81 -186z m-5361 -20 c-3 -5 -10 -10 -16
-10 -5 0 -9 5 -9 10 0 6 7 10 16 10 8 0 12 -4 9 -10z m1101 -332 c107 -142
193 -258 190 -258 -3 0 -66 80 -141 178 -74 97 -176 228 -225 291 -50 63 -90
117 -90 120 1 13 81 -86 266 -331z m4729 307 c-20 -16 -86 -37 -93 -31 -3 4
95 45 108 45 3 0 -4 -6 -15 -14z m-5155 -252 c-18 -21 -73 -80 -122 -132 l-88
-94 0 -153 0 -153 -126 -133 c-70 -73 -146 -153 -170 -178 l-44 -45 1 40 c2
34 3 36 6 10 5 -28 5 -29 16 -9 7 12 74 86 150 165 l137 144 0 155 1 155 126
133 c69 72 130 132 136 132 5 0 -6 -17 -23 -37z m3240 -148 c42 -49 138 -168
214 -262 l138 -173 75 0 c95 0 92 -7 -4 -11 l-72 -4 -93 116 c-51 63 -160 197
-243 298 -82 100 -151 188 -153 194 -2 7 12 -6 30 -28 18 -22 67 -80 108 -130z
m-3119 58 c13 -16 12 -17 -3 -4 -10 7 -18 15 -18 17 0 8 8 3 21 -13z m520
-250 c13 -16 12 -17 -3 -4 -10 7 -18 15 -18 17 0 8 8 3 21 -13z m5519 7 c0 -5
-4 -10 -10 -10 -5 0 -10 5 -10 10 0 6 5 10 10 10 6 0 10 -4 10 -10z m-5489
-47 c13 -16 12 -17 -3 -4 -10 7 -18 15 -18 17 0 8 8 3 21 -13z m30 -40 c13
-16 12 -17 -3 -4 -17 13 -22 21 -14 21 2 0 10 -8 17 -17z m30 -40 c13 -16 12
-17 -3 -4 -17 13 -22 21 -14 21 2 0 10 -8 17 -17z m30 -40 c13 -16 12 -17 -3
-4 -17 13 -22 21 -14 21 2 0 10 -8 17 -17z m-1611 -34 c0 -5 -7 -9 -15 -9 -9
0 -12 6 -9 15 6 15 24 11 24 -6z m1342 -41 c12 -17 17 -28 10 -25 -6 4 -21 22
-34 39 -12 17 -17 28 -10 25 6 -4 21 -22 34 -39z m3412 -28 c-4 -8 -24 -62
-45 -120 -20 -58 -78 -186 -128 -285 -50 -99 -87 -181 -82 -183 5 -2 47 16 93
38 45 23 79 38 73 32 -15 -14 -249 -142 -253 -138 -2 2 69 149 158 326 88 177
159 325 156 327 -3 3 -17 6 -31 6 -14 0 -28 4 -31 9 -3 5 15 8 45 6 41 -2 50
-6 45 -18z m-3363 -37 c13 -16 12 -17 -3 -4 -10 7 -18 15 -18 17 0 8 8 3 21
-13z m3325 -159 c-41 -82 -75 -146 -75 -142 -1 11 143 298 147 294 2 -2 -31
-71 -72 -152z m-3295 119 c13 -16 12 -17 -3 -4 -17 13 -22 21 -14 21 2 0 10
-8 17 -17z m-416 -53 c3 -5 -1 -10 -10 -10 -9 0 -13 5 -10 10 3 6 8 10 10 10
2 0 7 -4 10 -10z m506 -67 c13 -16 12 -17 -3 -4 -17 13 -22 21 -14 21 2 0 10
-8 17 -17z m759 -57 c0 -7 -151 -88 -155 -84 -3 2 30 23 73 46 82 44 82 44 82
38z m120 -96 c0 -5 -5 -10 -11 -10 -5 0 -7 5 -4 10 3 6 8 10 11 10 2 0 4 -4 4
-10z m2205 -90 c-25 -49 -47 -90 -50 -90 -3 0 15 41 40 90 25 50 47 90 50 90
3 0 -15 -40 -40 -90z m-3631 55 c-7 -17 -20 -20 -28 -6 -7 10 3 21 20 21 8 0
11 -6 8 -15z m66 -9 c0 -3 -4 -8 -10 -11 -5 -3 -10 -1 -10 4 0 6 5 11 10 11 6
0 10 -2 10 -4z m3869 0 c-10 -9 -69 -36 -69 -32 0 7 52 35 64 36 5 0 7 -2 5
-4z m-99 -51 c0 -3 -27 -18 -60 -35 -33 -17 -60 -28 -60 -25 0 2 26 18 58 34
64 34 62 33 62 26z m-2921 -61 c14 -12 -19 -1 -35 12 -18 14 -18 14 6 3 14 -6
27 -13 29 -15z m-959 -1 c0 -5 -5 -15 -10 -23 -7 -12 -12 -12 -22 -2 -10 10
-10 15 2 22 18 12 30 13 30 3z m1530 -3 c0 -5 -4 -10 -10 -10 -5 0 -10 5 -10
10 0 6 5 10 10 10 6 0 10 -4 10 -10z m350 -16 c0 -9 -5 -14 -12 -12 -18 6 -21
28 -4 28 9 0 16 -7 16 -16z m-1226 -4 c16 0 15 -3 -7 -20 -32 -26 -67 -26 -67
-2 0 26 11 34 35 28 11 -3 28 -6 39 -6z m86 -29 c-22 -13 -161 -47 -265 -65
-116 -21 -327 -30 -385 -18 -38 8 -24 10 85 11 186 1 324 17 450 50 120 32
138 35 115 22z m-173 -17 c-3 -3 -12 -4 -19 -1 -8 3 -5 6 6 6 11 1 17 -2 13
-5z m-40 -10 c-3 -3 -12 -4 -19 -1 -8 3 -5 6 6 6 11 1 17 -2 13 -5z m-554 -26
c37 -7 67 -16 67 -20 0 -5 -10 -6 -22 -3 -124 28 -131 29 -123 15 3 -5 -1 -10
-10 -10 -9 0 -13 5 -9 11 3 6 0 16 -7 21 -10 7 -7 8 11 4 14 -4 55 -12 93 -18z
m492 12 c-16 -4 -48 -7 -70 -7 l-40 0 45 7 c25 4 56 7 70 7 22 1 21 0 -5 -7z
m-200 -130 c3 -5 -1 -10 -10 -10 -9 0 -13 5 -10 10 3 6 8 10 10 10 2 0 7 -4
10 -10z"/>
<path d="M1545 6320 c-3 -6 1 -7 9 -4 18 7 21 14 7 14 -6 0 -13 -4 -16 -10z"/>
<path d="M1504 6272 c-16 -15 -35 -36 -43 -45 -25 -32 -5 -17 39 28 48 49 51
63 4 17z"/>
<path d="M6725 6920 c-3 -5 -1 -10 4 -10 6 0 11 5 11 10 0 6 -2 10 -4 10 -3 0
-8 -4 -11 -10z"/>
<path d="M6500 6770 c0 -5 5 -10 11 -10 5 0 7 5 4 10 -3 6 -8 10 -11 10 -2 0
-4 -4 -4 -10z"/>
<path d="M6012 6155 c-30 -62 -27 -71 4 -12 14 27 24 51 22 53 -3 2 -14 -17
-26 -41z"/>
<path d="M1107 7003 c26 -32 65 -78 85 -102 l38 -44 0 -341 1 -341 95 100 c52
55 113 121 135 146 l40 46 -1 288 c0 159 -3 291 -5 294 -19 18 -23 -37 -26
-304 -2 -126 -5 -194 -6 -150 l-4 80 -89 34 c-50 18 -90 38 -90 43 0 5 -4 7
-9 4 -14 -9 -21 20 -21 86 0 60 0 60 -62 126 -78 83 -89 91 -111 92 -14 0 -8
-13 30 -57z"/>
<path d="M3794 6948 l-112 -110 -209 1 c-351 2 -461 -17 -530 -91 -31 -32 -63
-107 -63 -146 0 -18 -4 -31 -9 -28 -5 3 -11 0 -14 -8 -4 -10 -28 -12 -96 -11
-75 2 -93 0 -102 -14 -7 -11 -9 9 -6 74 3 72 2 84 -6 60 -7 -19 -11 -163 -12
-395 l0 -365 35 -80 c59 -136 184 -243 335 -286 38 -11 125 -14 370 -14 357 0
367 1 486 71 85 50 136 106 180 199 58 119 62 172 55 650 -7 413 -10 470 -27
459 -5 -3 -9 -100 -9 -217 -1 -189 -2 -210 -15 -193 -8 11 -15 15 -15 9 0 -18
-74 -31 -126 -23 -27 5 -52 5 -56 2 -4 -4 -9 -41 -11 -82 -1 -41 -4 3 -5 98
-2 130 -5 172 -14 172 -10 0 -13 -78 -14 -353 -1 -236 -6 -362 -13 -381 -11
-27 -10 -28 5 -15 16 13 16 12 1 -16 -36 -69 -127 -124 -207 -125 -44 0 -49
-3 -130 -86 -47 -47 -104 -99 -128 -115 -88 -60 -73 -27 41 90 65 66 117 124
117 129 0 12 -38 4 -46 -9 -3 -5 -78 -9 -168 -9 -196 0 -248 12 -310 72 l-41
40 38 -27 c41 -30 49 -26 16 8 -54 56 -58 80 -60 402 -1 233 1 307 12 330 25
58 71 112 112 136 42 24 46 24 353 27 l312 3 87 97 c163 182 160 177 132 179
-15 2 -54 -31 -133 -109z m-1021 -611 c-59 -58 -110 -104 -112 -101 -2 2 2 11
9 20 8 8 15 25 15 36 3 35 186 188 193 162 2 -7 -45 -60 -105 -117z"/>
<path d="M3399 5673 c-13 -16 -12 -17 4 -4 9 7 17 15 17 17 0 8 -8 3 -21 -13z"/>
<path d="M4582 7048 c-9 -9 -12 -83 -14 -252 -1 -133 -3 -224 -5 -202 -4 34
-6 36 -17 20 -9 -11 -33 -20 -67 -25 -30 -4 -64 -9 -76 -12 -13 -3 -26 0 -30
6 -5 7 -10 -58 -13 -143 -4 -111 -6 -53 -8 202 -1 225 -6 359 -12 363 -7 4
-10 -98 -11 -297 0 -167 -1 -334 -3 -373 -3 -144 -9 -144 146 13 l138 138 -6
285 c-3 156 -7 285 -8 286 -1 2 -8 -3 -14 -9z"/>
</g>
</svg>
