<svg xmlns="http://www.w3.org/2000/svg" viewBox="0 0 32 32" role="img" aria-label="Koka lab">
  <defs>
    <linearGradient
      id="koka-flame"
      x1="12"
      y1="23"
      x2="12"
      y2="3"
      gradientUnits="userSpaceOnUse"
    >
      <stop offset="0%" stop-color="#4c1d95"/>
      <stop offset="30%" stop-color="#7c3aed"/>
      <stop offset="62%" stop-color="#c4b5fd"/>
      <stop offset="100%" stop-color="#67e8f9"/>
    </linearGradient>
    <linearGradient id="koka-flame-core" x1="12" y1="20" x2="12" y2="11" gradientUnits="userSpaceOnUse">
      <stop offset="0%" stop-color="#e9d5ff" stop-opacity="0"/>
      <stop offset="100%" stop-color="#f5d0fe" stop-opacity="0.9"/>
    </linearGradient>
  </defs>
  <rect width="32" height="32" rx="9" fill="#06050c"/>
  <rect
    width="31"
    height="31"
    x="0.5"
    y="0.5"
    rx="8.5"
    fill="none"
    stroke="#4c1d95"
    stroke-opacity="0.4"
  />
  <!-- Lucide flame (MIT); coords in 24×24, centered in 32×32 -->
  <g transform="translate(4 4)">
    <path
      fill="url(#koka-flame)"
      d="M8.5 14.5A2.5 2.5 0 0 0 11 12c0-1.38-.5-2-1-3-1.072-2.143-.224-4.054 2-6 .5 2.5 2 4.9 4 6.5 2 1.6 3 3.5 3 5.5a7 7 0 1 1-14 0c0-1.153.433-2.294 1-1.5.5.5 1 1.9 1 3a2.5 2.5 0 0 0 2.5 2.5z"
    />
    <ellipse cx="12" cy="14" rx="3" ry="4.8" fill="url(#koka-flame-core)"/>
  </g>
</svg>
